<svg width="197" height="82" viewBox="0 0 197 82" fill="none" xmlns="http://www.w3.org/2000/svg">
<path opacity="0.88" d="M133.823 0.0556641C135.48 0.0558734 136.823 1.3983 136.823 3.05469C136.823 4.0177 136.823 4.98824 136.823 5.97266C136.824 7.80846 136.825 7.80857 136.825 9.64453C136.825 9.76563 136.825 9.88672 136.825 10.0078C136.826 12.8378 136.827 15.668 136.828 18.498C136.828 18.5898 136.829 18.6817 136.829 18.7734C136.83 20.7023 136.831 22.6316 136.832 24.5605C136.833 25.5295 136.833 26.4988 136.834 27.4678C136.834 27.6139 136.834 27.7602 136.834 27.9062C136.835 30.1565 136.836 32.407 136.837 34.6572V37.1436C136.837 39.3902 136.838 41.6371 136.84 43.8838C136.84 43.93 136.84 43.9768 136.84 44.0244C136.84 45.039 136.841 46.0538 136.842 47.0684C136.842 47.4766 136.842 47.8848 136.843 48.293C136.843 48.3377 136.843 48.3827 136.843 48.4287C136.844 49.8675 136.844 51.3063 136.844 52.7451C136.844 54.1951 136.844 55.6457 136.846 57.0957C136.846 57.2961 136.846 57.4968 136.847 57.6973V59.6807C136.846 60.2923 136.846 60.904 136.848 61.5156C136.848 61.8426 136.849 62.1701 136.849 62.4971V63.71C136.839 65.6899 137.618 67.5605 139.014 68.9736C140.136 70.0713 141.617 70.7166 143.193 70.7021C144.398 70.6532 145.476 70.274 146.549 69.752C146.588 69.7331 146.626 69.7137 146.666 69.6943C147.483 69.2924 148.175 68.7724 148.827 68.1396C148.877 68.0925 148.927 68.0457 148.979 67.9971C149.178 67.8046 149.147 67.4958 148.989 67.2676C148.978 67.2518 148.967 67.2357 148.956 67.2197C148.898 67.134 148.84 67.0479 148.782 66.9619C148.752 66.9177 148.723 66.8727 148.692 66.8271C148.44 66.4432 148.217 66.0397 147.993 65.6387C147.962 65.5827 147.931 65.5264 147.898 65.4688C147.033 63.9214 146.348 62.312 145.771 60.6367C145.749 60.5732 145.727 60.5097 145.704 60.4443C144.942 58.217 144.443 55.913 144.158 53.5781C144.151 53.5175 144.143 53.4569 144.136 53.3945C143.504 47.9302 144.87 42.1914 149.507 34.7021C149.644 34.5187 149.779 34.3341 149.914 34.1494C150.21 33.7454 150.508 33.3432 150.828 32.958C150.874 32.9026 150.92 32.8471 150.967 32.79C151.706 31.9024 152.499 31.0348 153.385 30.291C153.441 30.2419 153.497 30.1919 153.553 30.1426C154.74 29.1025 156.059 28.2132 157.442 27.4561C157.514 27.4168 157.514 27.4162 157.587 27.376C160.971 25.5202 164.776 24.5149 168.613 24.2324C168.666 24.2285 168.72 24.2247 168.774 24.2207C173.612 23.8863 178.505 24.8811 182.897 26.9004C182.952 26.9251 183.006 26.9502 183.062 26.9756C183.884 27.3527 184.674 27.7754 185.454 28.2344C185.534 28.2814 185.535 28.2811 185.616 28.3291C186.384 28.7818 187.123 29.266 187.844 29.79C187.877 29.814 187.909 29.8386 187.943 29.8633C188.134 30.0031 188.323 30.1463 188.511 30.291C188.555 30.3252 188.556 30.3253 188.602 30.3604C189.302 30.8993 189.97 31.4741 190.623 32.0693C190.672 32.1132 190.721 32.157 190.771 32.2021C191.116 32.5134 191.45 32.8352 191.779 33.1631C191.838 33.2215 191.838 33.2217 191.898 33.2812C192.12 33.5034 192.331 33.7312 192.536 33.9688C192.653 34.1035 192.774 34.2343 192.895 34.3652C193.1 34.5909 193.306 34.8198 193.497 35.0596C193.697 35.311 193.782 35.6539 193.559 35.8848C193.504 35.9421 193.504 35.9425 193.448 36.001C193.409 36.0413 193.37 36.0815 193.329 36.123C193.247 36.2083 193.166 36.2936 193.084 36.3789C193.043 36.421 193.003 36.4635 192.961 36.5068C192.805 36.67 192.651 36.8356 192.498 37.002C192.444 37.0602 192.391 37.1185 192.337 37.1768C192.311 37.2051 192.285 37.2335 192.258 37.2627C192.123 37.4096 191.988 37.5565 191.853 37.7031C191.812 37.7474 191.811 37.7478 191.77 37.793C191.521 38.0625 191.27 38.3306 191.02 38.5986C190.771 38.8643 190.525 39.1321 190.28 39.4004C190.066 39.634 189.849 39.8652 189.633 40.0967C189.434 40.3098 189.236 40.524 189.039 40.7393C188.776 41.0271 188.51 41.3129 188.243 41.5977C188.044 41.8108 187.846 42.0249 187.649 42.2402C187.386 42.5281 187.12 42.8129 186.854 43.0977C186.654 43.3107 186.457 43.5249 186.26 43.7402C185.997 44.028 185.731 44.3139 185.465 44.5986C185.266 44.8118 185.067 45.0258 184.87 45.2412C184.607 45.529 184.342 45.8148 184.075 46.0996C183.876 46.3128 183.677 46.5268 183.48 46.7422C183.218 47.0299 182.952 47.3149 182.686 47.5996C182.486 47.8128 182.288 48.0268 182.091 48.2422C181.828 48.53 181.562 48.8158 181.296 49.1006C181.097 49.3137 180.899 49.5279 180.702 49.7432C180.439 50.031 180.173 50.3158 179.906 50.6006C179.707 50.8138 179.509 51.0287 179.312 51.2441C179.049 51.532 178.783 51.8168 178.517 52.1016C178.317 52.3147 178.12 52.5289 177.923 52.7441C177.66 53.032 177.394 53.3178 177.128 53.6025C176.929 53.8158 176.73 54.0297 176.533 54.2451C176.27 54.5328 176.005 54.8179 175.738 55.1025C175.539 55.3158 175.34 55.5307 175.144 55.7461C174.914 55.9976 174.682 56.2473 174.449 56.4961C174.164 56.8011 173.88 57.1078 173.599 57.416C173.166 57.8883 172.731 58.3575 172.294 58.8252C172.001 59.1389 171.709 59.4548 171.418 59.7705C171.252 59.9506 171.086 60.1306 170.92 60.3105C170.782 60.4596 170.644 60.6086 170.507 60.7578C170.176 61.1167 169.844 61.4745 169.511 61.8311C169.263 62.0967 169.017 62.3645 168.771 62.6328C168.557 62.8664 168.34 63.0977 168.124 63.3291C167.925 63.5423 167.726 63.7563 167.529 63.9717C167.266 64.2594 167.001 64.5444 166.734 64.8291C166.486 65.0953 166.239 65.3638 165.993 65.6328C165.807 65.8354 165.62 66.0358 165.432 66.2363C165.421 66.248 165.409 66.2598 165.398 66.2715C164.984 66.7155 165.027 67.4157 165.543 67.7373C165.589 67.766 165.635 67.7947 165.683 67.8242C169.036 69.8915 173.047 70.3877 176.86 69.4844C177.265 69.3821 177.664 69.2655 178.062 69.1406C178.132 69.119 178.132 69.1188 178.204 69.0967C180.375 68.4174 182.465 67.2634 184.287 65.917C184.325 65.8891 184.362 65.8608 184.401 65.832C184.661 65.6399 184.919 65.4455 185.176 65.25C185.207 65.2264 185.238 65.203 185.271 65.1787C186.266 64.425 187.228 63.6279 188.143 62.7773C188.242 62.6847 188.342 62.5924 188.442 62.5C189.015 62.0307 189.092 61.9668 189.438 61.5352C189.55 61.3969 189.76 61.3164 189.857 61.4648C189.88 61.5106 189.903 61.5564 189.926 61.6035C189.952 61.655 189.977 61.7068 190.004 61.7598C190.045 61.8434 190.046 61.8433 190.088 61.9287C191.029 63.7822 192.274 65.5299 193.674 67.0654C193.778 67.1799 193.878 67.2966 193.979 67.4141C194.364 67.8561 194.789 68.2594 195.235 68.6396C195.304 68.6996 195.374 68.7602 195.442 68.8203C195.518 68.8864 195.594 68.9525 195.67 69.0186C195.707 69.0506 195.744 69.0832 195.781 69.1162C195.816 69.1463 195.851 69.176 195.887 69.207C195.934 69.2478 195.934 69.2484 195.981 69.29C196.12 69.4081 196.19 69.6012 196.075 69.7432C196.006 69.8288 195.926 69.9063 195.84 69.9912C195.798 70.0321 195.798 70.0325 195.756 70.0742C195.576 70.2503 195.391 70.4188 195.199 70.582C195.054 70.7101 194.912 70.8426 194.771 70.9756C194.449 71.2794 194.125 71.5733 193.778 71.8496C193.634 71.9669 193.493 72.0875 193.353 72.21C192.924 72.5834 192.479 72.9318 192.023 73.2725C191.906 73.3609 191.788 73.4506 191.671 73.54C190.472 74.4471 189.202 75.2822 187.899 76.0322C187.804 76.0876 187.709 76.1428 187.614 76.1982C183.664 78.4917 179.326 79.8439 174.782 80.2559C174.722 80.2616 174.662 80.2676 174.6 80.2734C173.839 80.3352 173.075 80.325 172.312 80.3252C172.275 80.3252 172.237 80.3261 172.198 80.3262C171.05 80.3266 169.919 80.3043 168.78 80.1445C168.711 80.1356 168.642 80.1274 168.57 80.1182C165.171 79.6751 161.831 78.577 158.887 76.8105C158.836 76.7803 158.785 76.7499 158.733 76.7188C157.897 76.2148 157.059 75.6892 156.32 75.0469C156.272 75.0051 156.223 74.9639 156.174 74.9209C156.098 74.85 156.033 74.7611 155.93 74.752C155.828 74.7431 155.715 74.7994 155.636 74.8643C155.632 74.867 155.629 74.8702 155.626 74.873C155.501 74.9845 155.442 75.1533 155.32 75.2676C155.315 75.2722 155.31 75.2771 155.305 75.2822C155.266 75.3185 155.227 75.3543 155.188 75.3916C155.146 75.4298 155.105 75.4685 155.062 75.5078C155.02 75.5475 154.977 75.587 154.933 75.6279C151.936 78.3964 147.781 80.3451 143.649 80.3809C143.597 80.3814 143.544 80.3813 143.49 80.3818C142.269 80.3918 141.083 80.3696 139.879 80.1445C139.825 80.1344 139.771 80.1247 139.715 80.1143C138.578 79.8915 137.473 79.4838 136.433 78.9775C136.38 78.952 136.327 78.9267 136.273 78.9004C135.132 78.3391 134.078 77.6786 133.099 76.8662C133.053 76.8288 133.053 76.8281 133.006 76.79C132.264 76.1836 131.54 75.5182 130.973 74.7432C130.966 74.7361 130.959 74.7288 130.952 74.7217C130.903 74.6713 130.836 74.6426 130.766 74.6426C130.694 74.6427 130.623 74.6715 130.576 74.7256C130.538 74.7697 130.518 74.8031 130.455 74.9033C129.806 75.8371 128.998 76.6734 128.097 77.3662C128.042 77.4097 127.988 77.4532 127.932 77.498C125.837 79.1661 123.256 80.2091 120.593 80.4785C120.537 80.4847 120.481 80.4907 120.423 80.4971C116.424 80.8606 112.108 79.5694 108.98 77.0498C108.739 76.8478 108.505 76.639 108.272 76.4268C108.162 76.327 108.049 76.2318 107.935 76.1367C107.319 75.5983 106.804 74.9577 106.31 74.3096C106.267 74.2587 106.224 74.2077 106.181 74.1553C106.116 74.0705 105.964 74.0154 105.881 74.082C105.664 74.2555 105.454 74.4343 105.25 74.625C104.883 74.9626 104.486 75.2586 104.088 75.5576C103.986 75.6351 103.884 75.7136 103.783 75.793C103.344 76.1385 102.889 76.4519 102.419 76.7549C102.379 76.7807 102.339 76.8064 102.298 76.833C99.15 78.8698 95.6767 80.396 92.0254 81.2568C91.9646 81.2713 91.9034 81.2858 91.8408 81.3008C91.059 81.4852 90.2741 81.6285 89.4795 81.7432C89.4218 81.7516 89.4211 81.7512 89.3623 81.7598C88.1103 81.9406 86.8671 82.0019 85.6025 82C85.5656 82 85.5283 82 85.4902 82C84.2292 81.9998 82.9908 81.9454 81.7432 81.7568C81.6742 81.7467 81.6052 81.737 81.5342 81.7266C78.0767 81.2062 74.7144 79.9122 71.7393 78.0889C71.6593 78.0407 71.579 77.9924 71.499 77.9443C70.1048 77.098 68.8054 76.0908 67.6006 74.9932C67.5122 74.913 67.4233 74.833 67.334 74.7539C66.9988 74.4563 66.6766 74.1468 66.3604 73.8291C66.2814 73.7498 66.2023 73.6707 66.123 73.5918C65.8345 73.3028 65.5562 73.0086 65.292 72.6973C65.2399 72.6371 65.188 72.5767 65.1357 72.5166C64.9647 72.3182 64.7944 72.1188 64.625 71.9189C64.5938 71.8822 64.5624 71.8455 64.5303 71.8076C64.0313 71.2171 63.5651 70.6086 63.124 69.9736C63.0968 69.9345 63.0691 69.8958 63.041 69.8555C62.533 69.1205 62.0733 68.356 61.624 67.584C61.5948 67.534 61.5652 67.4841 61.5352 67.4326C59.3345 63.6245 58.2279 59.2275 58.0107 54.2451C58.0095 54.1971 58.0081 54.1491 58.0068 54.0996C57.8999 49.2973 58.9142 44.2297 64.3984 34.7295C64.4376 34.6617 64.4837 34.5959 64.5342 34.5361C64.8975 34.1057 65.2685 33.6838 65.6523 33.2715C65.7459 33.1707 65.8387 33.0691 65.9316 32.9678C66.5315 32.3161 66.532 32.3158 66.8604 32.043C66.9704 31.9484 67.0699 31.8464 67.1709 31.7422C67.3883 31.5214 67.6238 31.3294 67.8652 31.1357C67.9959 31.0291 68.1202 30.9188 68.2441 30.8047C72.0373 27.4023 77.0798 25.3065 84.7441 24.1768C84.811 24.1715 84.8784 24.1666 84.9473 24.1611C85.7161 24.1077 86.4855 24.1107 87.2559 24.1113C87.3636 24.1114 87.3638 24.1113 87.4736 24.1113C92.1934 24.1173 96.8957 25.1614 100.898 27.6416C101.755 28.1725 102.941 27.6152 102.956 26.6074C102.966 25.9451 103.506 25.3994 104.169 25.3994H112.648C114.304 25.3995 115.647 26.7415 115.648 28.3975C115.649 28.6645 115.649 28.9331 115.649 29.2031C115.65 30.0412 115.65 30.8797 115.65 31.7178C115.65 31.771 115.65 31.825 115.65 31.8799C115.652 33.6722 115.654 35.4645 115.655 37.2568C115.655 37.3446 115.655 37.345 115.655 37.4346C115.656 38.7057 115.658 39.9769 115.659 41.248C115.66 41.8715 115.661 42.4957 115.661 43.1191C115.661 43.2118 115.661 43.212 115.661 43.3066C115.663 45.3176 115.665 47.3289 115.666 49.3398C115.667 51.4062 115.668 53.4727 115.671 55.5391C115.671 55.831 115.672 56.1231 115.672 56.415C115.672 56.4724 115.673 56.5298 115.673 56.5889C115.674 57.5136 115.674 58.4386 115.674 59.3633C115.674 60.2929 115.675 61.2227 115.677 62.1523C115.678 62.7046 115.678 63.2573 115.678 63.8096C115.678 64.1786 115.678 64.548 115.679 64.917C115.679 65.127 115.68 65.3369 115.68 65.5469C115.679 65.7737 115.68 66.0007 115.681 66.2275C115.68 66.2922 115.68 66.3572 115.68 66.4238C115.685 67.1339 115.842 67.778 116.146 68.418C116.17 68.4686 116.193 68.5192 116.217 68.5713C116.437 69.015 116.745 69.3493 117.092 69.6963L117.206 69.8105C117.977 70.5302 119.098 70.9026 120.146 70.877C121.309 70.7827 122.322 70.3125 123.131 69.4619C124.06 68.3595 124.343 67.1328 124.338 65.7227C124.338 65.6078 124.339 65.4928 124.339 65.3779C124.34 65.0628 124.339 64.7477 124.339 64.4326C124.339 64.0896 124.339 63.7463 124.34 63.4033C124.341 62.8022 124.341 62.2007 124.341 61.5996C124.341 60.9549 124.341 60.3098 124.342 59.665C124.342 59.6244 124.342 59.5838 124.342 59.542C124.342 59.3341 124.343 59.1259 124.343 58.918C124.344 57.4144 124.344 55.9108 124.345 54.4072C124.345 52.9183 124.346 51.4293 124.347 49.9404C124.347 49.8943 124.347 49.8483 124.347 49.8008C124.347 49.3784 124.347 48.9556 124.348 48.5332C124.348 47.483 124.349 46.4321 124.35 45.3818C124.35 45.3105 124.35 45.3103 124.35 45.2373C124.351 42.9118 124.353 40.5863 124.354 38.2607C124.354 37.4539 124.354 36.6467 124.354 35.8398C124.355 35.7648 124.354 35.7641 124.354 35.6875C124.355 33.3607 124.356 31.0339 124.357 28.707C124.358 28.5559 124.358 28.404 124.358 28.2529C124.359 27.2517 124.36 26.2502 124.36 25.249C124.362 23.2568 124.362 21.2646 124.363 19.2725C124.363 19.1776 124.363 19.0822 124.363 18.9873C124.365 16.0654 124.367 13.1436 124.368 10.2217C124.368 10.104 124.368 9.98586 124.368 9.86816C124.369 7.59717 124.37 5.32568 124.371 3.05469C124.372 1.39834 125.715 0.0557181 127.371 0.0556641H133.823ZM53.7188 0C55.3756 0 56.7188 1.34315 56.7188 3V77.8115C56.7188 79.4684 55.3756 80.8115 53.7188 80.8115H45.5195C44.7344 80.8113 44.0954 80.1796 44.0869 79.3945C44.0757 78.3504 44.0642 77.3009 44.0527 76.2344C44.0505 76.0273 43.7946 75.9322 43.6582 76.0879C43.4183 76.3426 43.1651 76.5819 42.8994 76.8096C42.8005 76.8944 42.7021 76.98 42.6045 77.0664C41.36 78.1631 39.973 79.0218 38.4893 79.7559C38.4447 79.7782 38.3994 79.8002 38.3535 79.8232C35.1295 81.4226 31.4134 81.7286 27.873 81.8125C27.8109 81.814 27.8106 81.8139 27.7471 81.8154C27.5112 81.8203 27.2758 81.8179 27.04 81.8125C26.9884 81.8115 26.936 81.8106 26.8828 81.8096C21.3314 81.6926 15.6444 80.0918 11.1992 76.4766C11.1222 76.4146 11.1217 76.4149 11.043 76.3516C10.4989 75.9111 9.9525 75.467 9.46484 74.9639C9.36406 74.8629 9.25881 74.7705 9.15039 74.6777C8.76693 74.347 8.4136 73.9846 8.08496 73.5996C7.97359 73.4725 7.85807 73.3496 7.74219 73.2266C7.39638 72.8584 7.08201 72.4735 6.77441 72.0732C6.69853 71.976 6.62049 71.8803 6.54199 71.7852C5.36561 70.3565 4.41482 68.7576 3.55371 67.124C3.47758 66.9798 3.40043 66.836 3.32324 66.6924C2.56115 65.2688 1.91364 63.787 1.41797 62.249C1.40077 62.196 1.38295 62.1425 1.36523 62.0879C0.83161 60.4202 0.479017 58.7035 0.250977 56.9688C0.241888 56.904 0.23202 56.8391 0.222656 56.7725C-0.0895926 54.4741 -0.0670997 51.9272 0.250977 49.6318C0.260185 49.56 0.268835 49.4881 0.27832 49.4141C0.764468 45.6213 1.99129 41.9589 3.86328 38.6279C3.88561 38.5878 3.90767 38.5472 3.93066 38.5059C4.71575 37.1015 5.65774 35.7419 6.69727 34.5146C6.74686 34.4554 6.79713 34.3962 6.84668 34.3369C7.1192 34.0118 7.39587 33.6906 7.68164 33.377C7.76184 33.2885 7.84172 33.1997 7.9209 33.1104C8.21836 32.7753 8.52721 32.4538 8.84473 32.1377C8.92418 32.0585 9.00388 31.9789 9.08301 31.8994C9.37204 31.6108 9.66594 31.3335 9.97656 31.0684C10.0407 31.0117 10.105 30.9553 10.1689 30.8984C10.6793 30.4481 11.2103 30.0306 11.7559 29.624C11.7919 29.597 11.8281 29.5699 11.8652 29.542C16.2066 26.2898 21.6903 24.2704 28.0537 24.2256C28.118 24.2257 28.1828 24.2255 28.249 24.2256C31.8608 24.2325 35.4807 24.7034 39.0166 26.0947C41.2672 26.9804 44.0528 25.4889 44.0576 23.0703C44.0733 14.9668 44.078 12.6677 44.0967 3.00293C44.0999 1.34834 45.4421 0 47.0967 0H53.7188ZM33.1748 34.876C31.3097 34.6279 29.2859 34.577 27.4287 34.9033C27.3668 34.9141 27.305 34.9255 27.2412 34.9365C24.4169 35.4457 21.6541 36.7105 19.4258 38.5166C19.3699 38.5617 19.3695 38.5615 19.3125 38.6074C18.8453 38.9879 18.4149 39.405 17.9873 39.8291C17.9391 39.8768 17.8905 39.9245 17.8408 39.9736C17.5119 40.3043 17.2138 40.6525 16.9238 41.0176C16.8709 41.0824 16.8177 41.1472 16.7646 41.2119C14.3016 44.2878 12.8173 48.3777 12.7998 52.3281C12.7994 52.3871 12.7992 52.4461 12.7988 52.5068C12.7806 54.3 12.7811 54.3004 12.9785 56.0791C12.9895 56.1425 13.0004 56.2061 13.0117 56.2715C13.7904 60.615 16.1323 65.0521 19.7588 67.6953C19.8734 67.7867 19.988 67.8782 20.1025 67.9697C23.638 70.7049 28.38 71.7773 32.7715 71.2305C36.0147 70.7954 39.3469 69.4281 41.792 67.2178C41.8778 67.1402 41.9649 67.0637 42.0518 66.9873C42.7489 66.368 43.344 65.6789 43.8799 64.916C43.9557 64.8195 44.0305 64.7199 44.0723 64.6045C44.1264 64.4545 44.1328 64.313 44.1309 64.1309C44.1313 64.086 44.1324 64.0404 44.1328 63.9941C44.1339 63.8437 44.1333 63.6934 44.1328 63.543C44.1333 63.434 44.1332 63.3248 44.1338 63.2158C44.1353 62.9163 44.1359 62.6169 44.1357 62.3174C44.1358 61.9944 44.1365 61.6707 44.1377 61.3477C44.1398 60.7149 44.1413 60.082 44.1416 59.4492C44.1419 58.935 44.1418 58.4205 44.1426 57.9062C44.1445 56.6863 44.1464 55.4661 44.1465 54.2461V53.1777C44.1466 51.9415 44.1488 50.7049 44.1523 49.4688C44.1563 48.0802 44.1583 46.6913 44.1582 45.3027C44.1582 44.5675 44.1593 43.8319 44.1621 43.0967C44.1645 42.471 44.1647 41.8454 44.1631 41.2197C44.1623 40.9002 44.1628 40.5803 44.165 40.2607C44.167 39.9684 44.1672 39.6761 44.165 39.3838C44.1647 39.278 44.1646 39.1722 44.166 39.0664C44.1831 38.7456 44.1904 38.6146 44.1514 38.4619C44.0799 38.1827 43.8725 37.9506 43.6025 37.8496C43.5264 37.8095 43.4502 37.7682 43.375 37.7266C43.2959 37.6881 43.2164 37.6506 43.1367 37.6133C43.092 37.5923 43.0471 37.5714 43.001 37.5498C42.3645 37.2587 41.7059 37.0245 41.0459 36.793C41.0109 36.7806 40.9755 36.7686 40.9395 36.7559C38.4877 35.8922 35.9546 35.2441 33.376 34.9033C33.3098 34.8942 33.243 34.8854 33.1748 34.876ZM90.4658 34.7725C88.7956 34.5823 87.0154 34.5702 85.3555 34.8477C85.2923 34.8581 85.2292 34.8691 85.1641 34.8799C83.7026 35.1308 82.2944 35.5789 80.9648 36.2373C80.9193 36.2593 80.8741 36.282 80.8271 36.3047C79.4934 36.9531 78.1915 37.8054 77.1094 38.8252C76.9944 38.9324 76.8779 39.0353 76.7588 39.1377C76.4836 39.3776 76.2247 39.6334 75.9668 39.8916C75.9176 39.9408 75.8681 39.9903 75.8174 40.041C75.4907 40.3708 75.1914 40.7063 74.9072 41.0732C74.8183 41.1776 74.729 41.2817 74.6396 41.3857C72.6086 43.8237 71.4124 46.9625 70.8633 50.0596C70.8522 50.1214 70.8415 50.1833 70.8301 50.2471C70.6639 51.2352 70.6064 52.2227 70.6104 53.2236C70.6105 53.2767 70.6102 53.3301 70.6104 53.3848C70.6131 54.2552 70.6512 55.1074 70.7939 55.9678C70.8035 56.0253 70.8134 56.0833 70.8232 56.1426C71.384 59.3981 72.8174 62.5624 74.9629 65.083C75.009 65.1394 75.055 65.1958 75.1025 65.2539C75.7706 66.0627 76.5169 66.8365 77.3525 67.4727C77.4285 67.5333 77.5043 67.5944 77.5801 67.6553C78.1119 68.0803 78.6535 68.4648 79.2422 68.8066C79.2814 68.8295 79.3209 68.8524 79.3613 68.876C81.2906 69.9942 83.3808 70.7139 85.5781 71.0859C85.6565 71.0997 85.6567 71.0993 85.7363 71.1133C87.4491 71.4009 89.3712 71.3942 91.0801 71.0859C91.1628 71.0721 91.1636 71.0718 91.248 71.0576C94.6387 70.4839 98.0376 68.7923 100.529 66.417C100.609 66.3483 100.688 66.2797 100.769 66.2119C100.989 66.0194 101.178 65.8098 101.362 65.583C101.405 65.5303 101.449 65.4781 101.493 65.4238C101.789 65.0546 102.058 64.6732 102.287 64.2588C102.369 64.112 102.455 63.9726 102.55 63.834C103.107 62.9441 102.991 61.8669 102.985 60.8584C102.984 60.5705 102.986 60.2821 102.987 59.9941C102.99 59.4314 102.99 58.8684 102.988 58.3057V56.7354C102.988 56.6029 102.989 56.4704 102.989 56.3379C102.991 55.097 102.989 53.8561 102.986 52.6152C102.984 51.5508 102.986 50.4863 102.988 49.4219C102.992 48.1843 102.993 46.9466 102.991 45.709V45.1162C102.991 44.6592 102.992 44.2022 102.993 43.7451C102.995 43.1885 102.995 42.6318 102.992 42.0752C102.991 41.7912 102.99 41.5066 102.992 41.2227C102.994 40.9628 102.993 40.7032 102.99 40.4434C102.99 40.3494 102.99 40.2551 102.991 40.1611C102.997 39.9397 103.001 39.8135 102.986 39.7051C102.939 39.3436 102.67 39.0467 102.363 38.8496C102.315 38.8173 102.267 38.7852 102.217 38.752C102.081 38.6635 101.942 38.5819 101.801 38.502C101.748 38.4716 101.695 38.4414 101.641 38.4102C101.474 38.3149 101.308 38.2208 101.141 38.127C101.088 38.0968 101.034 38.0672 100.979 38.0361C97.7964 36.2297 94.2591 35.2116 90.6357 34.793C90.5797 34.7863 90.5236 34.7793 90.4658 34.7725ZM171.072 34.2197C167.114 34.2333 163.172 35.7265 160.24 38.3984C160.122 38.5055 160.002 38.6099 159.881 38.7139C158.724 39.724 157.81 41.0241 157.053 42.3516C157.033 42.3858 157.013 42.4198 156.992 42.4551C154.796 46.2819 154.33 51.4158 155.458 55.6445C155.602 56.1553 155.79 56.6476 155.997 57.1357C156.023 57.1977 156.023 57.1982 156.05 57.2617C156.385 58.0389 156.809 58.744 157.313 59.4082C157.548 59.7171 157.96 59.7989 158.217 59.5078C158.474 59.2201 158.74 58.9451 159.016 58.6758C159.172 58.5217 159.321 58.3638 159.465 58.1973C159.703 57.9214 159.962 57.6683 160.223 57.4131C160.441 57.1977 160.647 56.9763 160.847 56.7441C161.01 56.5605 161.185 56.3896 161.36 56.2178C161.676 55.9076 161.676 55.9078 161.972 55.5791C162.194 55.3153 162.443 55.0772 162.689 54.8359C162.864 54.6636 163.032 54.4888 163.192 54.3027C163.429 54.028 163.688 53.7763 163.947 53.5225C164.165 53.3072 164.37 53.0855 164.57 52.8535C164.766 52.6332 164.979 52.4305 165.189 52.2246C165.364 52.0518 165.533 51.8768 165.693 51.6904C165.93 51.4157 166.189 51.164 166.448 50.9102C166.666 50.6949 166.872 50.4741 167.071 50.2422C167.267 50.0218 167.48 49.8183 167.69 49.6123C167.865 49.4395 168.034 49.2645 168.194 49.0781C168.431 48.8034 168.69 48.5517 168.949 48.2979C169.167 48.0826 169.372 47.8618 169.572 47.6299C169.735 47.4462 169.911 47.2753 170.086 47.1035C170.401 46.7931 170.401 46.7926 170.697 46.4639C170.919 46.2001 171.169 45.962 171.415 45.7207C171.59 45.5482 171.759 45.3736 171.919 45.1875C172.156 44.9128 172.414 44.661 172.673 44.4072C172.891 44.192 173.096 43.9712 173.296 43.7393C173.491 43.5189 173.705 43.3154 173.915 43.1094C174.09 42.9365 174.259 42.7617 174.42 42.5752C174.657 42.3006 174.915 42.0496 175.174 41.7959C175.392 41.5806 175.597 41.359 175.797 41.127C175.992 40.9066 176.206 40.7031 176.416 40.4971C176.591 40.3242 176.76 40.1494 176.921 39.9629C177.158 39.6883 177.416 39.4373 177.675 39.1836C177.893 38.9683 178.098 38.7467 178.298 38.5146C178.496 38.2919 178.713 38.087 178.927 37.8799C179.307 37.5064 179.257 36.8985 178.847 36.5586C177.468 35.417 175.678 34.8058 173.942 34.4453C173.903 34.4369 173.863 34.4285 173.822 34.4199C172.964 34.2527 172.094 34.216 171.222 34.2197C171.172 34.2198 171.123 34.2196 171.072 34.2197Z" fill="#141413"/>
</svg>
