<svg width="1694" height="610" viewBox="0 0 1694 610" fill="none" xmlns="http://www.w3.org/2000/svg">
<g clip-path="url(#clip0_2203_40)">
<path d="M940.881 0.413574C971.453 0.413574 1002.02 0.413574 1033.52 0.413574C1033.53 14.9424 1033.53 29.4713 1033.53 44.4404C1033.54 58.1022 1033.54 58.1022 1033.54 71.764C1033.54 72.6655 1033.54 73.567 1033.54 74.4685C1033.55 95.5267 1033.56 116.585 1033.57 137.643C1033.57 138.327 1033.57 139.011 1033.57 139.695C1033.58 154.048 1033.59 168.402 1033.59 182.755C1033.6 189.966 1033.6 197.176 1033.61 204.387C1033.61 205.475 1033.61 206.562 1033.61 207.65C1033.62 224.395 1033.63 241.14 1033.63 257.884C1033.63 258.424 1033.63 258.424 1033.63 258.975C1033.63 264.778 1033.63 270.581 1033.63 276.384C1033.64 293.101 1033.64 309.819 1033.65 326.537C1033.65 326.881 1033.65 327.225 1033.65 327.579C1033.66 335.129 1033.66 342.68 1033.67 350.231C1033.67 353.269 1033.67 356.307 1033.67 359.346C1033.67 359.678 1033.67 360.011 1033.68 360.353C1033.68 371.06 1033.68 381.767 1033.68 392.474C1033.68 403.263 1033.69 414.052 1033.7 424.841C1033.7 426.334 1033.7 427.826 1033.7 429.318C1033.7 429.611 1033.71 429.904 1033.71 430.205C1033.71 434.829 1033.71 439.453 1033.71 444.078C1033.7 448.63 1033.71 453.181 1033.71 457.733C1033.72 460.166 1033.72 462.599 1033.72 465.032C1033.71 467.249 1033.71 469.466 1033.72 471.683C1033.72 472.477 1033.72 473.271 1033.72 474.064C1033.65 488.797 1039.44 502.712 1049.83 513.227C1058.19 521.395 1069.2 526.196 1080.93 526.087C1089.9 525.723 1097.91 522.902 1105.9 519.017C1106.19 518.877 1106.48 518.736 1106.77 518.592C1112.85 515.601 1118 511.732 1122.85 507.024C1123.22 506.672 1123.6 506.321 1123.98 505.959C1125.19 504.792 1125.19 504.792 1125.75 503.302C1125.15 502.174 1124.54 501.209 1123.81 500.174C1123.38 499.535 1122.95 498.896 1122.52 498.255C1122.3 497.925 1122.08 497.596 1121.85 497.256C1119.97 494.399 1118.32 491.398 1116.65 488.414C1116.42 487.996 1116.18 487.579 1115.94 487.149C1109.5 475.635 1104.4 463.659 1100.11 451.193C1099.94 450.72 1099.78 450.248 1099.61 449.761C1093.94 433.187 1090.23 416.045 1088.11 398.671C1088.06 398.22 1088 397.768 1087.95 397.303C1083.25 356.643 1093.4 313.946 1127.91 258.219C1128.93 256.852 1129.93 255.476 1130.94 254.1C1133.14 251.093 1135.36 248.107 1137.74 245.241C1138.08 244.828 1138.43 244.414 1138.78 243.989C1144.28 237.383 1150.18 230.925 1156.77 225.39C1157.19 225.024 1157.6 224.658 1158.02 224.291C1166.85 216.552 1176.66 209.932 1186.96 204.298C1187.49 204.005 1187.49 204.005 1188.03 203.705C1213.22 189.895 1241.53 182.414 1270.09 180.312C1270.48 180.283 1270.88 180.254 1271.29 180.223C1307.28 177.735 1343.69 185.137 1376.38 200.163C1376.78 200.347 1377.18 200.53 1377.6 200.72C1383.72 203.527 1389.6 206.672 1395.4 210.088C1396 210.439 1396 210.439 1396.61 210.798C1402.32 214.167 1407.82 217.768 1413.18 221.668C1413.43 221.846 1413.67 222.025 1413.93 222.209C1415.35 223.249 1416.75 224.313 1418.15 225.39C1418.48 225.646 1418.48 225.646 1418.82 225.907C1424.03 229.918 1429 234.194 1433.86 238.624C1434.23 238.952 1434.59 239.279 1434.97 239.617C1437.54 241.933 1440.02 244.325 1442.47 246.766C1442.91 247.2 1442.91 247.2 1443.35 247.644C1445 249.297 1446.58 250.992 1448.1 252.759C1448.97 253.762 1449.87 254.735 1450.77 255.709C1453.13 258.296 1455.49 260.933 1457.44 263.851C1457.31 265.281 1456.69 266.005 1455.71 267.016C1455.3 267.442 1455.3 267.442 1454.89 267.877C1454.59 268.178 1454.3 268.478 1454 268.788C1453.39 269.422 1452.78 270.057 1452.17 270.692C1451.87 271.005 1451.57 271.319 1451.26 271.641C1450.1 272.856 1448.96 274.089 1447.82 275.327C1447.42 275.761 1447.02 276.195 1446.62 276.629C1446.43 276.841 1446.23 277.052 1446.03 277.27C1445.03 278.364 1444.02 279.456 1443.01 280.548C1442.71 280.878 1442.71 280.878 1442.4 281.213C1440.55 283.22 1438.68 285.215 1436.82 287.21C1434.97 289.187 1433.14 291.178 1431.32 293.175C1429.72 294.913 1428.11 296.633 1426.5 298.356C1425.01 299.942 1423.54 301.536 1422.08 303.139C1420.12 305.281 1418.14 307.403 1416.16 309.522C1414.67 311.108 1413.2 312.702 1411.74 314.305C1409.78 316.447 1407.8 318.569 1405.82 320.688C1404.34 322.274 1402.86 323.868 1401.4 325.471C1399.44 327.613 1397.46 329.735 1395.48 331.854C1394 333.44 1392.52 335.034 1391.06 336.637C1389.1 338.779 1387.12 340.901 1385.14 343.02C1383.66 344.607 1382.18 346.2 1380.72 347.803C1378.76 349.945 1376.78 352.067 1374.8 354.186C1373.32 355.773 1371.84 357.367 1370.38 358.97C1368.42 361.111 1366.44 363.233 1364.46 365.352C1362.98 366.939 1361.5 368.533 1360.04 370.136C1358.08 372.277 1356.1 374.399 1354.12 376.518C1352.64 378.105 1351.16 379.699 1349.7 381.302C1347.74 383.443 1345.76 385.565 1343.78 387.684C1342.3 389.271 1340.83 390.865 1339.36 392.468C1337.4 394.61 1335.42 396.731 1333.44 398.851C1331.96 400.437 1330.49 402.031 1329.02 403.634C1327.06 405.776 1325.09 407.898 1323.1 410.017C1321.62 411.603 1320.15 413.197 1318.68 414.8C1316.97 416.672 1315.24 418.531 1313.51 420.383C1311.39 422.653 1309.28 424.935 1307.18 427.228C1303.97 430.743 1300.73 434.234 1297.47 437.715C1295.29 440.049 1293.12 442.395 1290.96 444.745C1289.72 446.086 1288.49 447.426 1287.25 448.766C1286.22 449.875 1285.2 450.984 1284.18 452.095C1281.72 454.765 1279.24 457.425 1276.76 460.078C1274.92 462.055 1273.09 464.046 1271.26 466.043C1269.67 467.781 1268.05 469.501 1266.44 471.223C1264.96 472.81 1263.49 474.404 1262.02 476.007C1260.06 478.149 1258.09 480.27 1256.1 482.389C1254.25 484.37 1252.42 486.367 1250.59 488.368C1249.21 489.876 1247.81 491.367 1246.41 492.859C1244.47 494.927 1242.56 497.013 1240.72 499.166C1242.78 501.009 1244.89 502.563 1247.24 504.025C1247.58 504.239 1247.92 504.453 1248.27 504.674C1273.23 520.058 1303.08 523.753 1331.46 517.031C1334.46 516.27 1337.43 515.397 1340.39 514.468C1340.92 514.307 1340.92 514.307 1341.45 514.142C1357.6 509.088 1373.15 500.501 1386.71 490.481C1387 490.273 1387.28 490.066 1387.57 489.851C1389.5 488.421 1391.42 486.974 1393.33 485.519C1393.56 485.343 1393.8 485.167 1394.04 484.986C1401.44 479.378 1408.6 473.449 1415.41 467.119C1416.15 466.429 1416.89 465.742 1417.64 465.054C1422.56 461.017 1422.56 461.017 1426.42 456.156C1427.66 456.57 1427.66 456.57 1428.17 457.352C1428.34 457.693 1428.5 458.034 1428.68 458.385C1428.87 458.768 1429.06 459.152 1429.26 459.546C1429.57 460.171 1429.57 460.171 1429.88 460.808C1436.89 474.6 1446.14 487.605 1456.56 499.03C1457.34 499.882 1458.09 500.748 1458.83 501.622C1461.7 504.913 1464.87 507.915 1468.19 510.746C1468.7 511.193 1469.22 511.64 1469.73 512.088C1470.29 512.58 1470.86 513.072 1471.42 513.563C1471.69 513.801 1471.96 514.04 1472.25 514.285C1472.5 514.51 1472.76 514.735 1473.03 514.967C1473.38 515.271 1473.38 515.271 1473.73 515.581C1474.47 516.201 1474.47 516.201 1475.63 516.949C1474.97 518.567 1473.92 519.584 1472.69 520.8C1472.38 521.105 1472.38 521.105 1472.06 521.415C1470.72 522.727 1469.35 523.977 1467.92 525.193C1466.84 526.147 1465.79 527.133 1464.74 528.123C1462.34 530.384 1459.92 532.569 1457.35 534.626C1456.27 535.499 1455.22 536.398 1454.18 537.31C1450.98 540.089 1447.67 542.681 1444.28 545.216C1443.41 545.875 1442.53 546.54 1441.66 547.205C1432.74 553.955 1423.29 560.168 1413.6 565.749C1412.89 566.162 1412.18 566.575 1411.47 566.988C1382.08 584.054 1349.81 594.114 1315.99 597.18C1315.54 597.222 1315.09 597.265 1314.63 597.309C1308.97 597.768 1303.29 597.695 1297.62 597.697C1297.33 597.697 1297.05 597.697 1296.76 597.697C1288.22 597.7 1279.8 597.541 1271.33 596.353C1270.81 596.286 1270.3 596.219 1269.77 596.151C1244.47 592.854 1219.62 584.683 1197.71 571.539C1197.33 571.314 1196.96 571.089 1196.57 570.857C1190.35 567.107 1184.11 563.2 1178.61 558.42C1178.25 558.109 1177.89 557.798 1177.52 557.478C1177.24 557.214 1176.96 556.949 1176.66 556.677C1175.76 556.11 1175.76 556.11 1174.49 556.47C1173.13 557.153 1173.12 557.419 1172.48 558.719C1171.83 559.442 1171.83 559.442 1171.05 560.168C1170.77 560.438 1170.48 560.707 1170.18 560.985C1169.88 561.269 1169.57 561.554 1169.25 561.846C1168.93 562.142 1168.62 562.437 1168.29 562.742C1145.99 583.343 1115.07 597.84 1084.32 598.105C1083.93 598.109 1083.54 598.113 1083.14 598.118C1074.05 598.192 1065.23 598.027 1056.27 596.353C1055.87 596.277 1055.46 596.202 1055.05 596.125C1046.58 594.467 1038.37 591.435 1030.63 587.668C1030.24 587.478 1029.84 587.287 1029.44 587.091C1020.95 582.914 1013.1 577.999 1005.81 571.953C1005.47 571.673 1005.47 571.673 1005.12 571.389C999.602 566.876 994.223 561.925 989.998 556.158C989.758 555.911 989.517 555.664 989.27 555.41C988.724 555.41 988.178 555.41 987.615 555.41C986.838 556.234 986.838 556.234 986.142 557.349C981.311 564.297 975.299 570.52 968.591 575.675C968.186 575.999 967.782 576.323 967.365 576.657C951.776 589.068 932.576 596.829 912.758 598.834C912.339 598.88 911.92 598.926 911.489 598.973C881.735 601.678 849.62 592.07 826.347 573.322C824.552 571.818 822.805 570.263 821.076 568.683C820.255 567.941 819.417 567.232 818.567 566.525C813.986 562.517 810.147 557.752 806.47 552.929C806.155 552.55 805.841 552.172 805.517 551.782C804.815 550.861 804.815 550.861 804.815 550.034C802.661 551.707 800.577 553.416 798.586 555.281C795.858 557.793 792.907 559.991 789.944 562.216C789.18 562.793 788.424 563.379 787.672 563.971C784.4 566.542 781.014 568.871 777.52 571.125C777.222 571.318 776.925 571.511 776.618 571.71C753.195 586.866 727.351 598.218 700.181 604.624C699.729 604.732 699.277 604.84 698.811 604.951C692.992 606.324 687.149 607.389 681.234 608.242C680.805 608.305 680.805 608.305 680.367 608.369C671.05 609.715 661.798 610.169 652.388 610.155C652.113 610.155 651.838 610.155 651.555 610.155C642.17 610.153 632.955 609.749 623.67 608.346C623.156 608.271 622.643 608.195 622.113 608.118C596.384 604.246 571.366 594.619 549.227 581.051C548.631 580.692 548.034 580.333 547.438 579.975C537.063 573.677 527.396 566.184 518.43 558.016C517.772 557.419 517.11 556.824 516.445 556.234C513.95 554.02 511.558 551.72 509.205 549.356C508.616 548.765 508.025 548.176 507.434 547.587C505.286 545.437 503.218 543.253 501.252 540.936C500.864 540.488 500.476 540.04 500.087 539.593C498.814 538.117 497.55 536.633 496.289 535.146C496.057 534.872 495.824 534.598 495.585 534.316C491.872 529.922 488.405 525.396 485.123 520.671C484.919 520.379 484.716 520.087 484.506 519.786C480.726 514.317 477.299 508.632 473.956 502.888C473.739 502.515 473.521 502.142 473.297 501.758C456.922 473.422 448.69 440.707 447.074 403.634C447.065 403.276 447.056 402.917 447.046 402.548C446.248 366.685 453.848 328.835 495.048 257.647C495.235 257.427 495.421 257.206 495.613 256.978C498.316 253.775 501.078 250.638 503.934 247.57C504.631 246.819 505.324 246.064 506.016 245.309C510.48 240.459 510.48 240.459 512.924 238.428C513.743 237.724 514.484 236.97 515.236 236.194C516.854 234.551 518.604 233.119 520.401 231.677C521.373 230.884 522.3 230.065 523.223 229.215C551.449 203.898 588.97 188.304 646.003 179.898C646.5 179.859 646.998 179.82 647.51 179.779C653.232 179.382 658.958 179.402 664.691 179.407C665.493 179.408 665.493 179.408 666.311 179.408C707.538 179.46 748.581 190.164 781.242 216.292C781.378 207.284 781.515 198.277 781.655 188.997C812.773 188.997 843.89 188.997 875.95 188.997C875.956 198.337 875.962 207.678 875.969 217.301C875.973 223.538 875.977 229.775 875.982 236.012C875.982 236.408 875.982 236.805 875.982 237.213C875.992 250.551 876.003 263.889 876.016 277.227C876.017 277.88 876.017 277.88 876.017 278.546C876.026 288.006 876.035 297.466 876.045 306.926C876.05 311.565 876.054 316.205 876.059 320.844C876.059 321.536 876.059 321.536 876.06 322.243C876.075 337.206 876.086 352.169 876.094 367.132C876.103 382.509 876.116 397.886 876.134 413.263C876.137 415.435 876.139 417.607 876.142 419.779C876.142 420.207 876.143 420.634 876.143 421.074C876.151 427.955 876.154 434.836 876.156 441.716C876.158 448.634 876.165 455.552 876.176 462.469C876.182 466.579 876.185 470.689 876.183 474.798C876.182 477.545 876.186 480.292 876.193 483.039C876.197 484.603 876.199 486.167 876.196 487.731C876.192 489.419 876.198 491.107 876.205 492.795C876.202 493.277 876.199 493.758 876.197 494.253C876.236 499.538 877.405 504.329 879.672 509.092C879.846 509.47 880.019 509.847 880.197 510.237C881.837 513.539 884.121 516.021 886.703 518.603C886.985 518.885 887.267 519.167 887.558 519.458C893.296 524.813 901.634 527.581 909.435 527.39C918.087 526.688 925.624 523.187 931.642 516.857C938.554 508.654 940.663 499.529 940.627 489.036C940.629 488.182 940.631 487.327 940.633 486.473C940.639 484.127 940.637 481.781 940.634 479.436C940.632 476.883 940.637 474.33 940.641 471.778C940.647 467.305 940.649 462.832 940.648 458.359C940.646 453.561 940.648 448.763 940.652 443.965C940.652 443.662 940.653 443.358 940.653 443.046C940.655 441.499 940.656 439.952 940.658 438.405C940.669 427.216 940.674 416.028 940.676 404.839C940.678 393.761 940.682 382.682 940.69 371.603C940.69 371.259 940.69 370.915 940.691 370.56C940.693 367.417 940.695 364.273 940.697 361.129C940.703 353.315 940.708 345.5 940.713 337.685C940.714 337.152 940.714 337.152 940.714 336.607C940.725 319.302 940.732 301.997 940.738 284.692C940.74 278.687 940.742 272.683 940.745 266.678C940.745 266.12 940.745 266.12 940.745 265.55C940.752 248.234 940.762 230.919 940.772 213.603C940.773 212.479 940.774 211.355 940.774 210.231C940.779 202.78 940.783 195.329 940.788 187.878C940.797 173.053 940.806 158.229 940.815 143.404C940.815 142.698 940.816 141.992 940.816 141.286C940.829 119.542 940.84 97.799 940.85 76.0556C940.851 75.1786 940.851 74.3016 940.851 73.4247C940.862 49.0876 940.872 24.7506 940.881 0.413574ZM1207.78 285.719C1206.9 286.517 1206 287.296 1205.1 288.07C1196.5 295.587 1189.7 305.255 1184.06 315.132C1183.92 315.388 1183.77 315.644 1183.61 315.907C1167.28 344.382 1163.8 382.578 1172.2 414.044C1173.27 417.846 1174.66 421.506 1176.21 425.139C1176.4 425.603 1176.4 425.603 1176.6 426.077C1179.74 433.352 1183.92 439.777 1189.03 445.817C1190.67 445.168 1191.57 444.105 1192.72 442.793C1194.63 440.652 1196.62 438.606 1198.67 436.602C1199.84 435.455 1200.94 434.281 1202.01 433.042C1203.78 430.988 1205.72 429.107 1207.65 427.207C1209.27 425.604 1210.8 423.958 1212.29 422.231C1213.5 420.864 1214.81 419.594 1216.12 418.315C1218.46 416.006 1218.46 416.006 1220.66 413.559C1222.32 411.596 1224.17 409.825 1226 408.03C1227.3 406.746 1228.56 405.446 1229.75 404.06C1231.51 402.016 1233.44 400.147 1235.36 398.258C1236.98 396.655 1238.51 395.009 1240 393.282C1241.46 391.642 1243.04 390.132 1244.61 388.599C1245.91 387.312 1247.17 386.011 1248.36 384.623C1250.12 382.579 1252.05 380.709 1253.97 378.82C1255.59 377.218 1257.12 375.572 1258.61 373.845C1260.07 372.205 1261.65 370.694 1263.22 369.161C1264.52 367.875 1265.78 366.573 1266.97 365.186C1268.73 363.141 1270.66 361.272 1272.58 359.383C1274.21 357.78 1275.73 356.135 1277.22 354.407C1278.44 353.04 1279.74 351.771 1281.05 350.492C1283.39 348.182 1283.39 348.182 1285.6 345.736C1287.25 343.773 1289.1 342.001 1290.93 340.206C1292.24 338.922 1293.49 337.622 1294.68 336.237C1296.44 334.192 1298.37 332.323 1300.29 330.434C1301.92 328.831 1303.44 327.185 1304.93 325.458C1306.39 323.818 1307.97 322.308 1309.54 320.775C1310.84 319.489 1312.1 318.187 1313.29 316.799C1315.06 314.755 1316.98 312.886 1318.9 310.997C1320.53 309.394 1322.05 307.748 1323.54 306.021C1325 304.381 1326.58 302.871 1328.15 301.338C1329.45 300.051 1330.71 298.75 1331.9 297.362C1333.67 295.318 1335.59 293.448 1337.52 291.559C1339.14 289.957 1340.66 288.312 1342.15 286.586C1343.62 284.928 1345.24 283.405 1346.83 281.864C1348.49 280.239 1349.85 278.596 1351.15 276.671C1340.49 265.118 1324.83 259.438 1309.74 256.303C1309.44 256.241 1309.15 256.178 1308.84 256.114C1302.46 254.87 1295.99 254.595 1289.5 254.623C1289.13 254.624 1288.76 254.625 1288.38 254.626C1258.93 254.727 1229.59 265.837 1207.78 285.719ZM650.552 259.302C650.081 259.379 649.61 259.457 649.124 259.537C638.25 261.404 627.774 264.742 617.88 269.641C617.54 269.805 617.2 269.969 616.85 270.139C606.925 274.963 597.24 281.304 589.188 288.892C588.332 289.691 587.464 290.458 586.576 291.222C584.528 293.007 582.604 294.911 580.684 296.832C580.317 297.2 579.95 297.567 579.572 297.945C577.141 300.399 574.915 302.89 572.8 305.62C572.138 306.397 571.475 307.172 570.81 307.947C555.696 326.087 546.799 349.443 542.713 372.488C542.631 372.949 542.548 373.41 542.464 373.884C541.227 381.238 540.796 388.586 540.826 396.035C540.827 396.429 540.827 396.824 540.828 397.23C540.849 403.709 541.133 410.051 542.196 416.454C542.267 416.882 542.338 417.31 542.411 417.751C546.583 441.976 557.249 465.522 573.214 484.278C573.558 484.698 573.902 485.118 574.256 485.551C579.227 491.57 584.779 497.328 590.998 502.061C591.563 502.513 592.128 502.966 592.692 503.42C596.65 506.583 600.678 509.443 605.059 511.986C605.351 512.157 605.643 512.327 605.944 512.503C620.3 520.824 635.856 526.174 652.207 528.942C652.791 529.045 652.791 529.045 653.386 529.149C666.133 531.29 680.433 531.236 693.15 528.942C693.766 528.839 693.766 528.839 694.394 528.734C719.626 524.466 744.916 511.878 763.458 494.203C764.05 493.692 764.644 493.183 765.242 492.678C766.883 491.246 768.287 489.687 769.662 488C769.982 487.608 770.301 487.216 770.631 486.813C772.831 484.065 774.835 481.231 776.538 478.147C777.146 477.053 777.791 476.014 778.496 474.98C782.639 468.358 781.775 460.35 781.734 452.846C781.727 450.702 781.741 448.559 781.752 446.415C781.77 442.227 781.768 438.038 781.758 433.85C781.751 430.446 781.751 427.042 781.756 423.638C781.757 423.152 781.757 422.667 781.758 422.166C781.759 421.179 781.761 420.193 781.762 419.206C781.775 409.972 781.765 400.738 781.747 391.504C781.732 383.584 781.738 375.663 781.758 367.743C781.782 358.534 781.793 349.326 781.782 340.117C781.781 339.135 781.78 338.153 781.779 337.171C781.779 336.688 781.778 336.205 781.778 335.708C781.775 332.306 781.782 328.905 781.793 325.504C781.806 321.361 781.804 317.219 781.784 313.076C781.774 310.963 781.77 308.851 781.785 306.738C781.798 304.803 781.792 302.869 781.771 300.934C781.766 300.235 781.769 299.536 781.779 298.837C781.888 295.001 781.888 295.001 780.358 291.586C779.318 290.627 778.295 289.842 777.106 289.078C776.746 288.837 776.385 288.596 776.014 288.347C775.002 287.689 773.969 287.088 772.919 286.493C772.527 286.267 772.135 286.042 771.731 285.809C770.494 285.1 769.251 284.4 768.007 283.702C767.613 283.478 767.22 283.253 766.814 283.022C743.127 269.58 716.805 262.003 689.842 258.888C689.423 258.839 689.005 258.789 688.573 258.738C676.145 257.323 662.904 257.237 650.552 259.302Z" fill="#302F2D"/>
<path d="M327.551 0C358.532 0 389.512 0 421.432 0C421.432 198.434 421.432 396.868 421.432 601.315C390.451 601.315 359.47 601.315 327.551 601.315C327.414 588.623 327.278 575.931 327.137 562.854C326.182 563.946 325.226 565.038 324.242 566.163C322.457 568.058 320.576 569.837 318.599 571.531C317.862 572.163 317.132 572.803 316.405 573.447C307.144 581.608 296.821 587.995 285.78 593.458C285.448 593.624 285.117 593.79 284.776 593.961C260.785 605.862 233.132 608.135 206.787 608.759C206.323 608.771 206.323 608.771 205.849 608.782C204.093 608.818 202.34 608.8 200.583 608.759C200.199 608.752 199.815 608.745 199.419 608.737C158.109 607.867 115.793 595.959 82.7148 569.058C82.1391 568.595 82.1391 568.595 81.5517 568.122C77.5033 564.845 73.4323 561.547 69.8036 557.803C69.0529 557.05 68.2719 556.359 67.4643 555.669C64.6109 553.208 61.984 550.515 59.5385 547.651C58.7094 546.705 57.8518 545.789 56.989 544.873C54.4155 542.134 52.0769 539.272 49.7878 536.293C49.2227 535.569 48.6448 534.858 48.0602 534.149C39.3055 523.518 32.2301 511.621 25.8219 499.464C25.2554 498.391 24.6829 497.321 24.1085 496.252C18.4368 485.658 13.6144 474.632 9.92578 463.186C9.79756 462.791 9.66935 462.395 9.53724 461.988C5.56624 449.578 2.93761 436.807 1.24072 423.898C1.17301 423.416 1.10531 422.934 1.03555 422.437C-1.28795 405.336 -1.12615 386.388 1.24072 369.308C1.30949 368.772 1.37827 368.235 1.44912 367.683C5.06675 339.46 14.1925 312.21 28.123 287.424C28.2896 287.125 28.4561 286.825 28.6277 286.517C34.4701 276.067 41.4794 265.952 49.2153 256.82C49.5844 256.379 49.9532 255.938 50.322 255.497C52.35 253.078 54.4079 250.692 56.5346 248.358C57.1322 247.699 57.7268 247.038 58.3169 246.372C60.5313 243.878 62.8316 241.486 65.1954 239.133C65.7866 238.544 66.3755 237.953 66.9643 237.361C69.1152 235.213 71.3047 233.152 73.6162 231.18C74.0947 230.757 74.5723 230.334 75.0492 229.91C78.8465 226.559 82.7907 223.452 86.8506 220.427C87.1194 220.226 87.3882 220.024 87.6652 219.816C119.971 195.617 160.779 180.593 208.131 180.26C208.61 180.261 209.088 180.262 209.581 180.263C249.375 180.339 289.303 187.978 327.137 214.224C327.342 108.183 327.342 108.183 327.551 0ZM203.479 259.715C203.018 259.795 202.557 259.875 202.082 259.958C181.065 263.746 160.505 273.157 143.924 286.597C143.508 286.932 143.508 286.932 143.084 287.274C139.606 290.106 136.405 293.211 133.223 296.367C132.864 296.722 132.504 297.077 132.135 297.443C129.687 299.903 127.471 302.49 125.313 305.207C124.919 305.69 124.524 306.173 124.129 306.656C105.801 329.543 94.7545 359.971 94.6245 389.366C94.6216 389.807 94.6187 390.248 94.6157 390.702C94.4801 404.045 94.4801 404.045 95.9492 417.281C96.0314 417.754 96.1136 418.226 96.1982 418.713C101.992 451.033 119.42 484.047 146.405 503.715C147.258 504.396 148.111 505.076 148.964 505.757C175.273 526.11 210.56 534.091 243.238 530.021C267.371 526.784 292.165 516.612 310.36 500.165C310.999 499.588 311.644 499.018 312.291 498.449C317.478 493.841 321.909 488.714 325.896 483.037C326.177 482.681 326.457 482.324 326.746 481.957C327.691 480.312 327.784 479.033 327.765 477.19C327.768 476.856 327.771 476.522 327.774 476.178C327.782 475.058 327.778 473.937 327.775 472.817C327.778 472.006 327.782 471.195 327.787 470.385C327.798 468.155 327.799 465.926 327.797 463.697C327.798 461.293 327.808 458.889 327.817 456.486C327.832 451.777 327.838 447.067 327.84 442.358C327.842 438.531 327.847 434.705 327.853 430.878C327.867 421.8 327.879 412.721 327.88 403.643C327.88 403.207 327.88 403.207 327.88 402.763C327.88 401.291 327.88 399.82 327.88 398.348C327.88 397.758 327.88 397.167 327.88 396.577C327.88 396.284 327.88 395.991 327.88 395.69C327.881 386.491 327.896 377.293 327.922 368.095C327.952 357.762 327.969 347.429 327.968 337.097C327.968 331.625 327.974 326.153 327.995 320.682C328.013 316.024 328.017 311.367 328.006 306.709C328 304.332 328 301.955 328.017 299.577C328.032 297.402 328.03 295.228 328.014 293.053C328.011 292.265 328.015 291.476 328.025 290.688C328.239 286.668 328.239 286.668 326.751 283.122C325.79 282.464 324.917 282.04 323.829 281.634C323.262 281.336 322.699 281.033 322.139 280.723C321.55 280.436 320.958 280.154 320.365 279.876C320.032 279.72 319.698 279.564 319.355 279.403C314.618 277.236 309.716 275.499 304.804 273.776C304.544 273.684 304.284 273.593 304.015 273.498C285.77 267.071 266.92 262.251 247.731 259.715C247.238 259.648 246.745 259.58 246.238 259.51C232.359 257.664 217.299 257.287 203.479 259.715Z" fill="#302F2D"/>
<path d="M1588.35 287.739C1588.72 287.735 1589.09 287.731 1589.47 287.726C1597.71 287.655 1605.67 287.75 1613.77 289.491C1614.19 289.58 1614.61 289.669 1615.04 289.76C1634.17 293.892 1650.53 303.394 1664.64 316.786C1664.98 317.111 1665.32 317.436 1665.67 317.77C1668.01 320.046 1670.06 322.499 1672.08 325.058C1672.4 325.456 1672.73 325.855 1673.06 326.266C1685.67 342.138 1693.98 362.899 1694.08 383.298C1694.09 383.672 1694.09 384.046 1694.09 384.43C1694.1 385.628 1694.1 386.825 1694.1 388.022C1694.1 388.431 1694.1 388.84 1694.1 389.261C1694.1 395.108 1693.95 400.786 1692.76 406.529C1692.69 406.886 1692.62 407.244 1692.55 407.613C1687.34 434.502 1671.41 457.357 1648.92 472.698C1646.9 474.024 1644.82 475.236 1642.72 476.42C1642.45 476.571 1642.19 476.723 1641.92 476.878C1619.61 489.617 1591.97 492.388 1567.29 485.829C1562.54 484.509 1557.93 482.9 1553.38 480.969C1553.06 480.83 1552.73 480.69 1552.39 480.547C1532.88 472.11 1516.25 456.727 1505.83 438.283C1505.42 437.567 1505.01 436.856 1504.59 436.145C1497.37 423.483 1493 407.968 1492.92 393.366C1492.92 392.992 1492.91 392.619 1492.91 392.234C1492.9 391.037 1492.9 389.84 1492.9 388.642C1492.9 388.233 1492.9 387.825 1492.9 387.403C1492.91 381.556 1493.05 375.879 1494.24 370.136C1494.35 369.599 1494.35 369.599 1494.45 369.052C1498.32 349.066 1508.03 331.859 1521.95 317.2C1522.28 316.858 1522.6 316.515 1522.94 316.163C1525.21 313.826 1527.67 311.774 1530.22 309.756C1530.82 309.271 1530.82 309.271 1531.43 308.777C1547.29 296.183 1567.98 287.925 1588.35 287.739Z" fill="#242321"/>
</g>
<defs>
<clipPath id="clip0_2203_40">
<rect width="1694" height="610" fill="white"/>
</clipPath>
</defs>
</svg>
