<svg width="108" height="23" viewBox="0 0 108 23" fill="none" xmlns="http://www.w3.org/2000/svg">
<path d="M3.96 11.44C3.96 12.276 4.092 13.0607 4.356 13.794C4.62 14.52 4.994 15.1104 5.478 15.565C5.96933 16.0124 6.54866 16.236 7.216 16.236C7.832 16.236 8.371 16.0124 8.833 15.565C9.295 15.1104 9.65433 14.52 9.911 13.794C10.1677 13.0607 10.296 12.276 10.296 11.44C10.296 10.604 10.1677 9.82303 9.911 9.09703C9.65433 8.3637 9.295 7.77337 8.833 7.32603C8.371 6.87137 7.832 6.64403 7.216 6.64403C6.54866 6.64403 5.96933 6.87137 5.478 7.32603C4.994 7.77337 4.62 8.3637 4.356 9.09703C4.092 9.82303 3.96 10.604 3.96 11.44ZM-3.04356e-06 6.49003V6.07203C-3.04356e-06 5.9107 0.032997 5.8117 0.098997 5.77503C0.164997 5.73837 0.267664 5.72003 0.406997 5.72003H3.553C3.72166 5.72003 3.83166 5.74203 3.883 5.78603C3.93433 5.8227 3.96 5.92537 3.96 6.09403V7.34803C3.96 7.61937 3.97466 7.76603 4.004 7.78803C4.04066 7.8027 4.092 7.75137 4.158 7.63403C4.51733 6.98137 4.99766 6.46437 5.599 6.08303C6.20033 5.69437 6.87133 5.50003 7.612 5.50003C8.48466 5.50003 9.29133 5.7347 10.032 6.20403C10.7727 6.67337 11.3667 7.3517 11.814 8.23903C12.2687 9.12637 12.496 10.1934 12.496 11.44C12.496 12.6867 12.2687 13.7537 11.814 14.641C11.3667 15.521 10.7727 16.1957 10.032 16.665C9.29133 17.127 8.48466 17.358 7.612 17.358C6.93 17.358 6.314 17.2077 5.764 16.907C5.22133 16.6064 4.76666 16.1847 4.4 15.642C4.23866 15.4 4.125 15.3047 4.059 15.356C3.993 15.4 3.96 15.7154 3.96 16.302V20.944C3.96 21.1714 3.98933 21.3107 4.048 21.362C4.114 21.4207 4.257 21.45 4.477 21.45H5.555C5.72366 21.45 5.83 21.4757 5.874 21.527C5.918 21.5784 5.94 21.692 5.94 21.868V22.319C5.94 22.4804 5.92166 22.5757 5.885 22.605C5.84833 22.6417 5.753 22.66 5.599 22.66H0.340997C0.19433 22.66 0.098997 22.627 0.054997 22.561C0.0183303 22.5024 -3.04356e-06 22.4034 -3.04356e-06 22.264V21.824C-3.04356e-06 21.6774 0.0146636 21.5784 0.043997 21.527C0.0733303 21.4757 0.157664 21.45 0.296997 21.45H1.551C1.75633 21.45 1.87733 21.417 1.914 21.351C1.958 21.285 1.98 21.1494 1.98 20.944V7.34803C1.98 7.15737 1.94333 7.04003 1.87 6.99603C1.79666 6.95203 1.66833 6.93003 1.485 6.93003H0.384997C0.208997 6.93003 0.098997 6.89703 0.054997 6.83103C0.0183303 6.76503 -3.04356e-06 6.65137 -3.04356e-06 6.49003ZM15.159 1.21003H13.949C13.7804 1.21003 13.6777 1.17337 13.641 1.10003C13.6044 1.01937 13.586 0.902033 13.586 0.748033V0.330033C13.586 0.176033 13.6264 0.0843664 13.707 0.0550334C13.7877 0.0183668 13.8977 3.34978e-05 14.037 3.34978e-05H17.051C17.2417 3.34978e-05 17.37 0.0183668 17.436 0.0550334C17.5094 0.0917001 17.546 0.205367 17.546 0.396034V15.466C17.546 15.6567 17.5497 15.785 17.557 15.851C17.5717 15.917 17.6817 15.95 17.887 15.95H19.229C19.3317 15.95 19.405 15.9684 19.449 16.005C19.5004 16.0417 19.526 16.1187 19.526 16.236V16.72C19.526 16.9254 19.4857 17.05 19.405 17.094C19.3317 17.138 19.1997 17.16 19.009 17.16H14.015C13.8537 17.16 13.74 17.138 13.674 17.094C13.6154 17.05 13.586 16.94 13.586 16.764V16.324C13.586 16.192 13.597 16.0967 13.619 16.038C13.6484 15.9794 13.729 15.95 13.861 15.95H15.225C15.401 15.95 15.5 15.9317 15.522 15.895C15.5514 15.8584 15.566 15.752 15.566 15.576V1.58403C15.566 1.4227 15.5404 1.32003 15.489 1.27603C15.4377 1.23203 15.3277 1.21003 15.159 1.21003ZM20.8957 14.454C20.8957 13.7647 21.1084 13.1267 21.5337 12.54C21.959 11.9534 22.5934 11.4804 23.4367 11.121C24.28 10.7617 25.3324 10.582 26.5937 10.582H27.6717C27.7964 10.582 27.8734 10.5674 27.9027 10.538C27.9394 10.5087 27.9577 10.428 27.9577 10.296V9.08603C27.9577 8.5947 27.899 8.1547 27.7817 7.76603C27.6717 7.37737 27.459 7.07303 27.1437 6.85303C26.8357 6.6257 26.3884 6.51203 25.8017 6.51203C25.4057 6.51203 25.028 6.55237 24.6687 6.63303C24.3094 6.7137 24.016 6.82003 23.7887 6.95203C23.5614 7.08403 23.4477 7.22337 23.4477 7.37003C23.4477 7.50203 23.499 7.60103 23.6017 7.66703C23.7044 7.7257 23.807 7.81003 23.9097 7.92003C24.0124 8.03003 24.0637 8.22803 24.0637 8.51403C24.0637 8.88803 23.9537 9.19603 23.7337 9.43803C23.521 9.6727 23.2277 9.79003 22.8537 9.79003C22.5164 9.79003 22.2157 9.69837 21.9517 9.51503C21.6877 9.3317 21.5557 8.99803 21.5557 8.51403C21.5557 8.03737 21.6914 7.61203 21.9627 7.23803C22.2414 6.86403 22.608 6.5487 23.0627 6.29203C23.5174 6.03537 24.0197 5.84103 24.5697 5.70903C25.127 5.5697 25.6844 5.50003 26.2417 5.50003C27.2684 5.50003 28.0457 5.66503 28.5737 5.99503C29.109 6.32503 29.4684 6.7577 29.6517 7.29303C29.8424 7.82103 29.9377 8.38203 29.9377 8.97603V15.598C29.9377 15.818 29.9927 15.9794 30.1027 16.082C30.22 16.1847 30.3557 16.236 30.5097 16.236C30.6637 16.236 30.8287 16.192 31.0047 16.104C31.1807 16.016 31.364 15.8217 31.5547 15.521C31.628 15.3964 31.7124 15.3707 31.8077 15.444L32.2037 15.686C32.299 15.7447 32.321 15.8327 32.2697 15.95C32.101 16.2727 31.892 16.5404 31.6427 16.753C31.4007 16.9657 31.1367 17.1234 30.8507 17.226C30.572 17.3287 30.2824 17.38 29.9817 17.38H29.9707C29.4207 17.38 29.01 17.2847 28.7387 17.094C28.4747 16.9034 28.295 16.6834 28.1997 16.434C28.1117 16.1847 28.053 15.972 28.0237 15.796C28.0017 15.664 27.9687 15.598 27.9247 15.598C27.888 15.598 27.8184 15.6677 27.7157 15.807C27.5984 15.9684 27.4224 16.1737 27.1877 16.423C26.953 16.6724 26.6084 16.896 26.1537 17.094C25.699 17.2847 25.083 17.38 24.3057 17.38C23.3304 17.38 22.5164 17.1234 21.8637 16.61C21.2184 16.0967 20.8957 15.378 20.8957 14.454ZM23.1397 14.124C23.1397 14.8574 23.3597 15.378 23.7997 15.686C24.247 15.994 24.7457 16.148 25.2957 16.148C26.0437 16.148 26.6744 15.8657 27.1877 15.301C27.701 14.7364 27.9577 13.9554 27.9577 12.958V11.638C27.9577 11.4914 27.8844 11.418 27.7377 11.418H26.5937C25.743 11.418 25.0647 11.528 24.5587 11.748C24.0527 11.9607 23.6897 12.2687 23.4697 12.672C23.2497 13.0754 23.1397 13.5594 23.1397 14.124ZM34.6163 6.93003H33.1313C33.036 6.93003 32.9736 6.90803 32.9443 6.86403C32.915 6.82003 32.9003 6.75037 32.9003 6.65503V5.97303C32.9003 5.88503 32.915 5.8227 32.9443 5.78603C32.9736 5.74203 33.0286 5.72003 33.1093 5.72003H36.5193C36.644 5.72003 36.732 5.76037 36.7833 5.84103C36.8346 5.91437 36.8603 6.00237 36.8603 6.10503V7.39203C36.8603 7.67803 36.8786 7.81003 36.9153 7.78803C36.952 7.76603 37.007 7.69637 37.0803 7.57903C37.4323 6.99237 37.9163 6.50103 38.5323 6.10503C39.1483 5.7017 39.933 5.50003 40.8863 5.50003C41.8176 5.50003 42.54 5.63203 43.0533 5.89603C43.574 6.16003 43.937 6.55603 44.1423 7.08403C44.3476 7.6047 44.4503 8.25737 44.4503 9.04203V15.455C44.4503 15.6457 44.4686 15.7777 44.5053 15.851C44.542 15.917 44.6556 15.95 44.8463 15.95H46.1443C46.269 15.95 46.346 15.9757 46.3753 16.027C46.412 16.071 46.4303 16.1554 46.4303 16.28V16.918C46.4303 17.0354 46.4046 17.105 46.3533 17.127C46.302 17.149 46.214 17.16 46.0893 17.16H40.7323C40.615 17.16 40.5453 17.1344 40.5233 17.083C40.5013 17.0244 40.4903 16.9364 40.4903 16.819V16.269C40.4903 16.1444 40.505 16.06 40.5343 16.016C40.571 15.972 40.648 15.95 40.7653 15.95H42.0303C42.2063 15.95 42.3236 15.928 42.3823 15.884C42.441 15.8327 42.4703 15.7117 42.4703 15.521V9.28403C42.4703 8.47003 42.3016 7.8467 41.9643 7.41403C41.6343 6.97403 41.1063 6.75403 40.3803 6.75403C39.6616 6.75403 39.0383 6.9447 38.5103 7.32603C37.9823 7.70737 37.5753 8.21703 37.2893 8.85503C37.0033 9.4857 36.8603 10.1787 36.8603 10.934V15.499C36.8603 15.6677 36.8933 15.785 36.9593 15.851C37.0326 15.917 37.1536 15.95 37.3223 15.95H38.4553C38.602 15.95 38.701 15.972 38.7523 16.016C38.811 16.06 38.8403 16.1627 38.8403 16.324V16.83C38.8403 16.962 38.8183 17.05 38.7743 17.094C38.7376 17.138 38.657 17.16 38.5323 17.16H33.2083C33.0763 17.16 32.992 17.138 32.9553 17.094C32.9186 17.0427 32.9003 16.9474 32.9003 16.808V16.302C32.9003 16.148 32.9296 16.0527 32.9883 16.016C33.0543 15.972 33.157 15.95 33.2963 15.95H34.5063C34.653 15.95 34.752 15.9354 34.8033 15.906C34.8546 15.8694 34.8803 15.7814 34.8803 15.642V7.11703C34.8803 7.03637 34.8583 6.98503 34.8143 6.96303C34.7703 6.94103 34.7043 6.93003 34.6163 6.93003ZM47.4908 11.66C47.4908 10.4867 47.6851 9.43803 48.0738 8.51403C48.4624 7.5827 49.0454 6.84937 49.8228 6.31403C50.6074 5.77137 51.5901 5.50003 52.7708 5.50003C53.4894 5.50003 54.1128 5.61003 54.6408 5.83003C55.1761 6.0427 55.6271 6.3397 55.9938 6.72103C56.3678 7.09503 56.6684 7.52403 56.8958 8.00803C57.1231 8.4847 57.2881 8.9907 57.3908 9.52603C57.4934 10.054 57.5448 10.5784 57.5448 11.099C57.5448 11.2457 57.5154 11.3374 57.4568 11.374C57.4054 11.4034 57.3028 11.418 57.1488 11.418H50.0758C49.9584 11.418 49.8668 11.44 49.8008 11.484C49.7421 11.528 49.7128 11.6124 49.7128 11.737C49.7128 12.5437 49.8191 13.2954 50.0318 13.992C50.2444 14.6887 50.5818 15.2497 51.0438 15.675C51.5131 16.093 52.1254 16.302 52.8808 16.302C53.7534 16.302 54.4758 16.0564 55.0478 15.565C55.6271 15.0737 56.0634 14.4247 56.3568 13.618C56.3861 13.5374 56.4154 13.475 56.4448 13.431C56.4741 13.3797 56.5438 13.354 56.6538 13.354H57.2918C57.4018 13.354 57.4714 13.3724 57.5008 13.409C57.5301 13.4457 57.5338 13.5044 57.5118 13.585C57.3064 14.333 56.9984 14.993 56.5878 15.565C56.1771 16.1297 55.6454 16.5734 54.9928 16.896C54.3401 17.2187 53.5481 17.38 52.6168 17.38C51.5094 17.38 50.5744 17.1197 49.8118 16.599C49.0491 16.071 48.4698 15.3744 48.0738 14.509C47.6851 13.6364 47.4908 12.6867 47.4908 11.66ZM50.0648 10.472H55.0368C55.1834 10.472 55.2714 10.461 55.3008 10.439C55.3374 10.417 55.3558 10.3694 55.3558 10.296C55.3558 9.92937 55.3044 9.5297 55.2018 9.09703C55.0991 8.65703 54.9414 8.23903 54.7288 7.84303C54.5161 7.4397 54.2484 7.1097 53.9258 6.85303C53.6031 6.59637 53.2181 6.46803 52.7708 6.46803C52.0961 6.46803 51.5351 6.6587 51.0878 7.04003C50.6404 7.42137 50.3068 7.89803 50.0868 8.47003C49.8668 9.04203 49.7568 9.6177 49.7568 10.197C49.7568 10.307 49.7751 10.3804 49.8118 10.417C49.8484 10.4537 49.9328 10.472 50.0648 10.472ZM66.0251 15.015C65.8784 15.455 65.6658 15.8584 65.3871 16.225C65.1158 16.5917 64.7711 16.885 64.3531 17.105C63.9424 17.3177 63.4511 17.424 62.8791 17.424C62.0871 17.424 61.5188 17.215 61.1741 16.797C60.8294 16.379 60.6571 15.8694 60.6571 15.268V7.30403C60.6571 7.17203 60.6314 7.0767 60.5801 7.01803C60.5288 6.95937 60.4371 6.93003 60.3051 6.93003H58.9961C58.8421 6.93003 58.7394 6.9117 58.6881 6.87503C58.6368 6.83837 58.6111 6.7467 58.6111 6.60003V6.00603C58.6111 5.8667 58.6294 5.78603 58.6661 5.76403C58.7101 5.7347 58.8018 5.72003 58.9411 5.72003C59.3371 5.72003 59.6598 5.69437 59.9091 5.64303C60.1584 5.5917 60.3638 5.47803 60.5251 5.30203C60.6864 5.12603 60.8294 4.85103 60.9541 4.47703C61.0788 4.10303 61.2144 3.59703 61.3611 2.95903C61.3904 2.83437 61.4234 2.75003 61.4601 2.70603C61.4968 2.66203 61.5958 2.64003 61.7571 2.64003H62.3511C62.5418 2.64003 62.6371 2.74637 62.6371 2.95903V5.37903C62.6371 5.53303 62.6738 5.62837 62.7471 5.66503C62.8204 5.7017 62.9268 5.72003 63.0661 5.72003H65.5081C65.6548 5.72003 65.7501 5.74203 65.7941 5.78603C65.8454 5.83003 65.8711 5.92903 65.8711 6.08303V6.65503C65.8711 6.78703 65.8418 6.8677 65.7831 6.89703C65.7318 6.91903 65.6401 6.93003 65.5081 6.93003H63.0881C62.9341 6.93003 62.8204 6.94837 62.7471 6.98503C62.6738 7.0217 62.6371 7.12437 62.6371 7.29303V14.806C62.6371 15.246 62.7251 15.565 62.9011 15.763C63.0771 15.961 63.3118 16.06 63.6051 16.06C63.9204 16.06 64.2028 15.95 64.4521 15.73C64.7088 15.5027 64.9324 15.18 65.1231 14.762C65.1744 14.652 65.2184 14.586 65.2551 14.564C65.2991 14.542 65.3798 14.553 65.4971 14.597L65.8491 14.718C65.9371 14.7474 65.9958 14.7804 66.0251 14.817C66.0618 14.8537 66.0618 14.9197 66.0251 15.015ZM67.5812 14.454C67.5812 13.7647 67.7939 13.1267 68.2192 12.54C68.6446 11.9534 69.2789 11.4804 70.1222 11.121C70.9656 10.7617 72.0179 10.582 73.2792 10.582H74.3572C74.4819 10.582 74.5589 10.5674 74.5882 10.538C74.6249 10.5087 74.6432 10.428 74.6432 10.296V9.08603C74.6432 8.5947 74.5846 8.1547 74.4672 7.76603C74.3572 7.37737 74.1446 7.07303 73.8292 6.85303C73.5212 6.6257 73.0739 6.51203 72.4872 6.51203C72.0912 6.51203 71.7136 6.55237 71.3542 6.63303C70.9949 6.7137 70.7016 6.82003 70.4742 6.95203C70.2469 7.08403 70.1332 7.22337 70.1332 7.37003C70.1332 7.50203 70.1846 7.60103 70.2872 7.66703C70.3899 7.7257 70.4926 7.81003 70.5952 7.92003C70.6979 8.03003 70.7492 8.22803 70.7492 8.51403C70.7492 8.88803 70.6392 9.19603 70.4192 9.43803C70.2066 9.6727 69.9132 9.79003 69.5392 9.79003C69.2019 9.79003 68.9012 9.69837 68.6372 9.51503C68.3732 9.3317 68.2412 8.99803 68.2412 8.51403C68.2412 8.03737 68.3769 7.61203 68.6482 7.23803C68.9269 6.86403 69.2936 6.5487 69.7482 6.29203C70.2029 6.03537 70.7052 5.84103 71.2552 5.70903C71.8126 5.5697 72.3699 5.50003 72.9272 5.50003C73.9539 5.50003 74.7312 5.66503 75.2592 5.99503C75.7946 6.32503 76.1539 6.7577 76.3372 7.29303C76.5279 7.82103 76.6232 8.38203 76.6232 8.97603V15.598C76.6232 15.818 76.6782 15.9794 76.7882 16.082C76.9056 16.1847 77.0412 16.236 77.1952 16.236C77.3492 16.236 77.5142 16.192 77.6902 16.104C77.8662 16.016 78.0496 15.8217 78.2402 15.521C78.3136 15.3964 78.3979 15.3707 78.4932 15.444L78.8892 15.686C78.9846 15.7447 79.0066 15.8327 78.9552 15.95C78.7866 16.2727 78.5776 16.5404 78.3282 16.753C78.0862 16.9657 77.8222 17.1234 77.5362 17.226C77.2576 17.3287 76.9679 17.38 76.6672 17.38H76.6562C76.1062 17.38 75.6956 17.2847 75.4242 17.094C75.1602 16.9034 74.9806 16.6834 74.8852 16.434C74.7972 16.1847 74.7386 15.972 74.7092 15.796C74.6872 15.664 74.6542 15.598 74.6102 15.598C74.5736 15.598 74.5039 15.6677 74.4012 15.807C74.2839 15.9684 74.1079 16.1737 73.8732 16.423C73.6386 16.6724 73.2939 16.896 72.8392 17.094C72.3846 17.2847 71.7686 17.38 70.9912 17.38C70.0159 17.38 69.2019 17.1234 68.5492 16.61C67.9039 16.0967 67.5812 15.378 67.5812 14.454ZM69.8252 14.124C69.8252 14.8574 70.0452 15.378 70.4852 15.686C70.9326 15.994 71.4312 16.148 71.9812 16.148C72.7292 16.148 73.3599 15.8657 73.8732 15.301C74.3866 14.7364 74.6432 13.9554 74.6432 12.958V11.638C74.6432 11.4914 74.5699 11.418 74.4232 11.418H73.2792C72.4286 11.418 71.7502 11.528 71.2442 11.748C70.7382 11.9607 70.3752 12.2687 70.1552 12.672C69.9352 13.0754 69.8252 13.5594 69.8252 14.124Z" fill="white"/>
<path d="M82.0016 16.06C82.0016 15.818 82.0639 15.598 82.1886 15.4C82.3059 15.202 82.4636 15.0444 82.6616 14.927C82.8596 14.8024 83.0796 14.74 83.3216 14.74C83.5636 14.74 83.7836 14.8024 83.9816 14.927C84.1869 15.0444 84.3482 15.202 84.4656 15.4C84.5829 15.598 84.6416 15.818 84.6416 16.06C84.6416 16.302 84.5829 16.5257 84.4656 16.731C84.3482 16.929 84.1869 17.0867 83.9816 17.204C83.7836 17.3214 83.5636 17.38 83.3216 17.38C83.0796 17.38 82.8596 17.3214 82.6616 17.204C82.4636 17.0867 82.3059 16.929 82.1886 16.731C82.0639 16.5257 82.0016 16.302 82.0016 16.06ZM91.8069 6.27003L89.7059 15.202C89.6912 15.2607 89.6802 15.3267 89.6729 15.4C89.6655 15.4734 89.6619 15.5394 89.6619 15.598C89.6619 15.8767 89.7939 16.016 90.0579 16.016C90.4025 16.016 90.7839 15.7777 91.2019 15.301C91.6272 14.8244 91.9755 14.256 92.2469 13.596C92.2909 13.486 92.3422 13.4127 92.4009 13.376C92.4595 13.3394 92.5512 13.343 92.6759 13.387L92.9399 13.486C93.0425 13.5227 93.1049 13.5667 93.1269 13.618C93.1489 13.6694 93.1305 13.7647 93.0719 13.904C92.6465 14.916 92.0929 15.7484 91.4109 16.401C90.7362 17.0537 90.0285 17.38 89.2879 17.38C88.7745 17.38 88.3859 17.2517 88.1219 16.995C87.8579 16.731 87.7259 16.324 87.7259 15.774C87.7259 15.7154 87.7295 15.6384 87.7369 15.543C87.7515 15.4404 87.7625 15.356 87.7699 15.29L89.5959 7.30403C89.6325 7.1427 89.6289 7.04003 89.5849 6.99603C89.5409 6.95203 89.4272 6.93003 89.2439 6.93003H88.2319C88.0485 6.93003 87.9275 6.90803 87.8689 6.86403C87.8175 6.8127 87.7919 6.69537 87.7919 6.51203V6.07203C87.7919 5.91803 87.8212 5.8227 87.8799 5.78603C87.9459 5.74203 88.0485 5.72003 88.1879 5.72003H91.3339C91.6272 5.72003 91.7922 5.74937 91.8289 5.80803C91.8729 5.8667 91.8655 6.0207 91.8069 6.27003ZM90.2779 1.76003C90.2779 1.39337 90.4062 1.0817 90.6629 0.825034C90.9269 0.568367 91.2385 0.440033 91.5979 0.440033C91.9645 0.440033 92.2762 0.568367 92.5329 0.825034C92.7895 1.0817 92.9179 1.39337 92.9179 1.76003C92.9179 2.11937 92.7895 2.43103 92.5329 2.69503C92.2762 2.9517 91.9645 3.08003 91.5979 3.08003C91.2385 3.08003 90.9269 2.9517 90.6629 2.69503C90.4062 2.43103 90.2779 2.11937 90.2779 1.76003ZM103.051 10.12C103.051 9.50403 103.011 8.93203 102.93 8.40403C102.849 7.87603 102.655 7.4507 102.347 7.12803C102.046 6.80537 101.562 6.64403 100.895 6.64403C100.433 6.64403 99.9453 6.8347 99.4319 7.21603C98.9259 7.59737 98.4493 8.10337 98.0019 8.73403C97.5546 9.3647 97.1916 10.0687 96.9129 10.846C96.6343 11.6234 96.4949 12.408 96.4949 13.2C96.4949 14.124 96.6489 14.861 96.9569 15.411C97.2649 15.961 97.7709 16.236 98.4749 16.236C98.9736 16.236 99.4906 16.0417 100.026 15.653C100.561 15.257 101.056 14.7474 101.511 14.124C101.973 13.4934 102.343 12.826 102.622 12.122C102.908 11.4107 103.051 10.7434 103.051 10.12ZM107.308 13.827C106.883 14.861 106.329 15.7117 105.647 16.379C104.965 17.0464 104.246 17.38 103.491 17.38C102.978 17.38 102.578 17.259 102.292 17.017C102.013 16.775 101.874 16.434 101.874 15.994C101.874 15.8254 101.892 15.6824 101.929 15.565C101.973 15.4477 102.006 15.356 102.028 15.29C102.101 15.0627 102.112 14.9417 102.061 14.927C102.017 14.9124 101.914 15.0004 101.753 15.191C101.218 15.829 100.613 16.3534 99.9379 16.764C99.2706 17.1747 98.5776 17.38 97.8589 17.38C97.2063 17.38 96.6086 17.248 96.0659 16.984C95.5306 16.7127 95.1016 16.2727 94.7789 15.664C94.4563 15.048 94.2949 14.2267 94.2949 13.2C94.2949 12.32 94.4379 11.4914 94.7239 10.714C95.0099 9.9367 95.3876 9.2327 95.8569 8.60203C96.3336 7.96403 96.8543 7.4177 97.4189 6.96303C97.9909 6.50103 98.5629 6.14537 99.1349 5.89603C99.7143 5.6467 100.242 5.52203 100.719 5.52203C101.518 5.52203 102.12 5.68703 102.523 6.01703C102.934 6.34703 103.253 6.78703 103.48 7.33703C103.561 7.54237 103.619 7.64503 103.656 7.64503C103.693 7.6377 103.733 7.54237 103.777 7.35903L105.053 1.68303C105.082 1.55837 105.093 1.44837 105.086 1.35303C105.086 1.2577 104.991 1.21003 104.8 1.21003H103.535C103.418 1.21003 103.344 1.18437 103.315 1.13303C103.286 1.0817 103.271 0.997367 103.271 0.880034V0.396034C103.271 0.249367 103.286 0.1467 103.315 0.0880337C103.344 0.0293669 103.429 3.34978e-05 103.568 3.34978e-05H106.89C107.125 3.34978e-05 107.271 0.0183668 107.33 0.0550334C107.396 0.0917001 107.407 0.205367 107.363 0.396034L103.909 15.202C103.894 15.2607 103.883 15.3267 103.876 15.4C103.869 15.4734 103.865 15.5394 103.865 15.598C103.865 15.8767 103.997 16.016 104.261 16.016C104.628 16.016 105.024 15.7667 105.449 15.268C105.882 14.762 106.23 14.1644 106.494 13.475C106.523 13.4017 106.549 13.354 106.571 13.332C106.593 13.3027 106.641 13.3027 106.714 13.332L107.198 13.508C107.279 13.5374 107.326 13.5704 107.341 13.607C107.363 13.6437 107.352 13.717 107.308 13.827Z" fill="white" fill-opacity="0.5"/>
</svg>
